<svg width="189" height="44" viewBox="0 0 189 44" fill="none" xmlns="http://www.w3.org/2000/svg">
<g clip-path="url(#clip0_2472_14427)">
<path d="M42.9025 0C42.9045 0.011233 42.9059 0.0224655 42.9078 0.0336985C40.4413 7.31687 35.9127 13.7964 30.5991 19.2814C29.3297 20.5918 28.9108 20.9479 28.0744 21.7861C28.55 20.9708 28.9386 20.0994 29.3518 19.2537C30.423 17.0613 31.1857 15.1709 31.7801 12.7964C30.5821 13.525 28.9753 14.2197 27.6815 14.8177C25.8212 15.6777 22.0431 16.8851 20.9677 18.6667C20.7366 19.0559 20.6707 19.5213 20.7845 19.9594C21.1911 21.4973 23.5459 22.1078 24.8805 22.5643C28.1156 23.6711 32.2468 24.9308 33.23 28.6634C33.6512 30.2627 33.328 32.0363 32.4739 33.4528C29.7566 37.7023 24.3346 39.5297 19.6945 40.751C19.3775 40.837 17.9286 41.2739 17.7337 41.0884C17.8562 40.8829 18.6029 40.6707 18.8601 40.5679C22.7258 39.0627 29.8217 35.6378 28.4123 30.3329C26.8869 24.5912 11.8863 26.723 15.8521 17.8172C16.4498 16.4751 18.8919 14.5317 20.2654 14.1306C19.5017 14.1044 18.8015 14.0025 18.1516 13.5648C17.4802 13.1106 17.0236 12.4018 16.8877 11.6027C16.5849 9.91061 17.6494 8.28851 19.3704 7.99114C21.0067 7.7084 22.7281 9.03304 22.8789 10.6917C22.9753 11.7524 22.6575 12.3742 22.0207 13.1986C22.4761 12.9929 22.9503 12.8004 23.4134 12.6152C29.5178 10.1755 35.5979 7.37667 40.3701 2.73795C41.2654 1.86779 42.0732 0.934829 42.9025 0Z" fill="#14B8A6"/>
<path d="M9.75931 14.1636C10.1908 14.1298 10.5532 14.1478 10.9638 14.288C11.6062 14.5059 12.1352 14.971 12.4337 15.5801C12.8048 16.3455 12.7594 17.1906 12.4818 17.9763C14.0118 16.8047 14.5741 16.4656 16.3314 15.6302C15.5425 16.3283 14.8382 17.1675 14.3712 18.1161C13.7506 19.3763 13.6233 20.9259 14.09 22.2602C15.3914 25.982 20.941 26.5541 24.0574 28.0708C25.201 28.6274 26.2928 29.419 26.7174 30.6748C27.0874 31.7693 26.8799 32.9868 26.3669 33.9999C23.5769 39.5101 9.2502 42.1138 3.53052 44C4.2859 43.1955 5.06557 42.2672 5.80251 41.4312C7.24847 39.7897 8.70733 38.1593 10.179 36.5408C11.8829 34.631 13.6405 32.7843 15.3535 30.8905C14.5171 32.6848 13.5081 36.0102 12.9546 37.9064C15.4906 36.992 17.9655 36.4165 20.2305 34.7892C21.9845 33.6608 22 31.5799 19.8965 30.7761C14.9553 28.8881 7.53412 28.5203 5.98262 22.2902C5.57971 20.6724 5.77536 18.8625 6.01316 17.2049C6.60732 20.7844 7.30234 22.0312 10.4574 23.8686C10.4512 23.8348 10.4455 23.8009 10.4402 23.767C10.1351 21.86 10.6655 20.3683 11.7872 18.8358C11.4206 19.0759 11.1037 19.2432 10.6703 19.3413C10.0171 19.4925 9.3304 19.3766 8.76306 19.0192C8.1626 18.6395 7.73784 18.0366 7.5824 17.3434C7.42571 16.6477 7.55319 15.9182 7.93655 15.3169C8.38568 14.6267 8.98237 14.3336 9.75931 14.1636Z" fill="#0D9488"/>
<path d="M19.1695 2.23416C20.7194 2.1138 24.3322 2.39434 25.7195 3.06842C24.09 2.75088 22.4263 2.64452 20.7695 2.75203C15.8202 3.06741 11.2026 5.34911 7.94527 9.08876C4.69132 12.8525 2.84642 17.8475 3.20636 22.8419C3.53613 27.4181 5.59059 31.8741 9.08904 34.8871C9.33836 35.0904 9.49825 35.2159 9.77287 35.3933C9.10295 36.0295 8.17969 37.127 7.56531 37.8277C7.34987 37.5844 6.78808 37.1026 6.52575 36.8626C5.96529 36.3593 5.43265 35.8259 4.93023 35.2642C-1.68666 27.8433 -1.60898 16.4488 4.95733 9.04507C8.75396 4.76418 13.4651 2.5352 19.1695 2.23416Z" fill="#0D9488"/>
<path d="M30.8561 1.99226C31.9083 1.81014 32.9772 2.20755 33.6548 3.03292C34.3324 3.85824 34.5141 4.98408 34.1306 5.98066C33.7471 6.9773 32.8576 7.69091 31.8015 7.84913C30.1942 8.0899 28.6924 6.99255 28.4334 5.38808C28.1744 3.78357 29.2546 2.26941 30.8561 1.99226Z" fill="#0D9488"/>
<path d="M21.8005 3.56763C23.0499 3.56877 24.1108 3.63957 25.3411 3.8778C25.9987 4.00519 26.638 4.16943 27.2902 4.29572C27.2394 5.13739 27.2555 5.86548 27.5529 6.66819C26.79 6.3094 26.0045 6.0008 25.2013 5.74431C20.7343 4.33582 16.378 5.05082 12.2979 7.17506C10.5726 8.1314 9.36819 9.12039 8.0481 10.564C8.26162 10.1529 8.71166 9.61636 9.03603 9.27932C12.5513 5.62638 16.7511 3.71911 21.8005 3.56763Z" fill="#0D9488"/>
<path d="M60.1631 15.2238C59.9319 15.1112 59.6267 14.9837 59.2473 14.8415C58.8679 14.6992 58.4381 14.5658 57.958 14.4413C57.4778 14.3109 56.9562 14.2042 56.393 14.1212C55.8299 14.0323 55.2519 13.9878 54.6591 13.9878C54.1849 13.9878 53.7788 14.0027 53.4409 14.0323C53.109 14.0619 52.8274 14.1005 52.5962 14.1479C52.371 14.1953 52.1902 14.2516 52.0538 14.3168C51.9234 14.3761 51.8226 14.4384 51.7515 14.5036C51.6804 14.5688 51.6329 14.634 51.6092 14.6992C51.5914 14.7644 51.5825 14.8237 51.5825 14.877C51.5825 15.0549 51.6715 15.2119 51.8493 15.3483C52.0271 15.4787 52.2702 15.5973 52.5784 15.704C52.8867 15.8047 53.2453 15.9025 53.6543 15.9974C54.0634 16.0863 54.4961 16.1812 54.9525 16.2819C55.4149 16.3768 55.8891 16.4835 56.3752 16.602C56.8672 16.7147 57.3415 16.848 57.7979 17.0022C58.2603 17.1563 58.696 17.3371 59.105 17.5446C59.514 17.7461 59.8727 17.9832 60.1809 18.2559C60.4892 18.5286 60.7322 18.8428 60.91 19.1984C61.0879 19.5541 61.1768 19.9602 61.1768 20.4166C61.1768 21.0035 61.0731 21.5073 60.8656 21.9282C60.6581 22.3491 60.3795 22.7048 60.0297 22.9952C59.6859 23.2857 59.2858 23.5198 58.8294 23.6977C58.3729 23.8696 57.8928 24.003 57.3889 24.0978C56.8909 24.1927 56.3841 24.2549 55.8684 24.2845C55.3586 24.3142 54.8725 24.329 54.4101 24.329C53.2009 24.329 52.0805 24.2282 51.049 24.0267C50.0235 23.8311 49.1166 23.585 48.3282 23.2887V20.3721C49.1403 20.8227 50.065 21.1754 51.1024 21.4303C52.1457 21.6852 53.2601 21.8126 54.4457 21.8126C55.1452 21.8126 55.7143 21.7771 56.1529 21.7059C56.5975 21.6289 56.9443 21.534 57.1933 21.4214C57.4422 21.3028 57.6112 21.1754 57.7001 21.039C57.789 20.9027 57.8335 20.7723 57.8335 20.6478C57.8335 20.4522 57.7446 20.2832 57.5667 20.141C57.3889 19.9928 57.1458 19.8653 56.8376 19.7586C56.5293 19.646 56.1707 19.5452 55.7617 19.4563C55.3527 19.3614 54.917 19.2696 54.4546 19.1806C53.9982 19.0858 53.5269 18.985 53.0408 18.8783C52.5547 18.7716 52.0805 18.6471 51.6181 18.5049C51.1617 18.3567 50.7289 18.1877 50.3199 17.998C49.9109 17.8024 49.5523 17.5742 49.244 17.3134C48.9358 17.0466 48.6927 16.7413 48.5149 16.3975C48.337 16.0478 48.2481 15.6447 48.2481 15.1882C48.2481 14.6488 48.343 14.1835 48.5327 13.7922C48.7224 13.401 48.9773 13.069 49.2974 12.7963C49.6234 12.5177 49.9968 12.2925 50.4177 12.1206C50.8445 11.9487 51.2921 11.8153 51.7604 11.7204C52.2287 11.6256 52.7029 11.5604 53.1831 11.5248C53.6632 11.4893 54.1197 11.4715 54.5524 11.4715C55.0266 11.4715 55.5127 11.4952 56.0107 11.5426C56.5145 11.59 57.0095 11.6582 57.4956 11.7471C57.9817 11.8301 58.45 11.9279 58.9005 12.0405C59.3569 12.1532 59.7778 12.2717 60.1631 12.3962V15.2238ZM72.9744 14.4413V24H69.6756V14.4413H64.4916V11.7827H78.1672V14.4413H72.9744ZM91.2808 21.6881H84.4697L83.3227 24H79.6415L86.0347 11.7827H89.7159L96.1091 24H92.4279L91.2808 21.6881ZM85.6523 19.3051H90.116L87.8931 14.8059L85.6523 19.3051ZM103.23 14.388V16.5131H111.17V19.1184H103.23V24H99.9308V11.7827H111.606V14.388H103.23ZM119.544 14.388V16.5131H127.485V19.1184H119.544V24H116.245V11.7827H127.92V14.388H119.544ZM139.407 14.4413V24H136.108V14.4413H130.924V11.7827H144.6V14.4413H139.407ZM164.24 17.9002C164.24 18.9495 164.047 19.8772 163.662 20.6834C163.276 21.4836 162.725 22.1535 162.008 22.6929C161.291 23.2323 160.419 23.6414 159.394 23.92C158.374 24.1927 157.227 24.329 155.953 24.329C154.678 24.329 153.525 24.1927 152.494 23.92C151.468 23.6414 150.594 23.2323 149.871 22.6929C149.147 22.1535 148.59 21.4836 148.199 20.6834C147.808 19.8772 147.612 18.9495 147.612 17.9002C147.612 16.851 147.808 15.9263 148.199 15.126C148.59 14.3198 149.147 13.647 149.871 13.1076C150.594 12.5681 151.468 12.1621 152.494 11.8894C153.525 11.6108 154.678 11.4715 155.953 11.4715C157.227 11.4715 158.374 11.6108 159.394 11.8894C160.419 12.1621 161.291 12.5681 162.008 13.1076C162.725 13.647 163.276 14.3198 163.662 15.126C164.047 15.9263 164.24 16.851 164.24 17.9002ZM160.905 17.9002C160.905 17.4438 160.831 16.9903 160.683 16.5398C160.541 16.0833 160.283 15.6743 159.909 15.3127C159.542 14.9511 159.038 14.6577 158.398 14.4324C157.758 14.2072 156.943 14.0945 155.953 14.0945C155.289 14.0945 154.705 14.1479 154.201 14.2546C153.697 14.3554 153.261 14.4976 152.894 14.6814C152.526 14.8652 152.218 15.0815 151.969 15.3305C151.72 15.5735 151.522 15.8373 151.373 16.1219C151.225 16.4005 151.118 16.6939 151.053 17.0022C150.994 17.3045 150.964 17.6038 150.964 17.9002C150.964 18.2026 150.994 18.5078 151.053 18.8161C151.118 19.1243 151.225 19.4207 151.373 19.7053C151.522 19.9839 151.72 20.2447 151.969 20.4877C152.218 20.7308 152.526 20.9442 152.894 21.128C153.261 21.3058 153.697 21.4481 154.201 21.5548C154.705 21.6555 155.289 21.7059 155.953 21.7059C156.943 21.7059 157.758 21.5933 158.398 21.368C159.038 21.1428 159.542 20.8493 159.909 20.4877C160.283 20.1261 160.541 19.7201 160.683 19.2696C160.831 18.8131 160.905 18.3567 160.905 17.9002ZM180.608 24L172.365 15.6062V24H169.066V11.7827H172.65L180.901 20.2121V11.7827H184.182V24H180.608Z" fill="#0A3254"/>
<path opacity="0.9" d="M49.2968 33.0555C49.0228 33.0555 48.7691 33.0056 48.5358 32.9056C48.3062 32.8019 48.1063 32.6593 47.9359 32.4779C47.7656 32.2927 47.6342 32.0761 47.5416 31.828C47.449 31.5762 47.4027 31.3003 47.4027 31.0004C47.4027 30.7005 47.449 30.4264 47.5416 30.1783C47.6342 29.9265 47.7638 29.7099 47.9304 29.5285C48.1007 29.3433 48.3007 29.2008 48.5303 29.1008C48.7636 28.9971 49.0172 28.9453 49.2912 28.9453C49.5912 28.9453 49.8596 29.0064 50.0966 29.1286C50.3373 29.2508 50.5336 29.4229 50.6854 29.6451C50.8409 29.8673 50.9372 30.1265 50.9742 30.4227H50.5188C50.4743 30.0932 50.3429 29.834 50.1244 29.6451C49.9096 29.4526 49.6338 29.3563 49.2968 29.3563C49.0117 29.3563 48.7617 29.4266 48.5469 29.5674C48.3322 29.7044 48.1655 29.8969 48.047 30.145C47.9285 30.3894 47.8693 30.6745 47.8693 31.0004C47.8693 31.3263 47.9285 31.6132 48.047 31.8613C48.1655 32.1057 48.3322 32.2983 48.5469 32.439C48.7617 32.576 49.0098 32.6445 49.2912 32.6445C49.6356 32.6445 49.917 32.5482 50.1355 32.3557C50.3577 32.1631 50.4891 31.9039 50.5299 31.5781H50.9853C50.9483 31.8743 50.852 32.1335 50.6965 32.3557C50.5447 32.5779 50.3484 32.7501 50.1077 32.8722C49.8707 32.9944 49.6004 33.0555 49.2968 33.0555ZM53.9478 33.0555C53.6701 33.0555 53.4146 33.0056 53.1813 32.9056C52.9517 32.8019 52.7517 32.6575 52.5814 32.4723C52.4111 32.2835 52.2778 32.0632 52.1815 31.8114C52.0889 31.5596 52.0426 31.2837 52.0426 30.9837C52.0426 30.5875 52.1241 30.2357 52.287 29.9284C52.45 29.6211 52.674 29.3804 52.9591 29.2063C53.2479 29.0323 53.5756 28.9453 53.9422 28.9453C54.3162 28.9453 54.6458 29.0323 54.9309 29.2063C55.2198 29.3804 55.4456 29.6211 55.6086 29.9284C55.7715 30.2357 55.853 30.5894 55.853 30.9893C55.853 31.2892 55.8048 31.5651 55.7086 31.8169C55.616 32.0687 55.4845 32.2872 55.3142 32.4723C55.1438 32.6575 54.942 32.8019 54.7088 32.9056C54.4755 33.0056 54.2218 33.0555 53.9478 33.0555ZM53.9422 32.6445C54.2274 32.6445 54.4773 32.5742 54.6921 32.4334C54.9106 32.289 55.0809 32.0909 55.2031 31.8391C55.3253 31.5873 55.3864 31.3003 55.3864 30.9782C55.3864 30.6597 55.3253 30.3783 55.2031 30.1339C55.0846 29.8895 54.9161 29.6988 54.6976 29.5618C54.4829 29.4248 54.2311 29.3563 53.9422 29.3563C53.6534 29.3563 53.4016 29.4248 53.1868 29.5618C52.9721 29.6988 52.8054 29.8895 52.6869 30.1339C52.5684 30.3746 52.5092 30.656 52.5092 30.9782C52.5092 31.304 52.5684 31.5929 52.6869 31.8447C52.8091 32.0928 52.9776 32.289 53.1924 32.4334C53.4072 32.5742 53.6571 32.6445 53.9422 32.6445ZM57.1645 33V29.0008H57.6367L59.9307 32.3668L59.864 32.3779V29.0008H60.2972V33H59.8251L57.5311 29.634L57.5978 29.6229V33H57.1645ZM61.8099 33V29.0008H62.282L64.576 32.3668L64.5093 32.3779V29.0008H64.9426V33H64.4704L62.1765 29.634L62.2431 29.6229V33H61.8099ZM66.4552 33V29.0008H66.9107V33H66.4552ZM66.6885 33V32.6001H69.1324V33H66.6885ZM66.6885 31.117V30.7171H68.9325V31.117H66.6885ZM66.6885 29.4007V29.0008H69.088V29.4007H66.6885ZM72.019 33.0555C71.7449 33.0555 71.4913 33.0056 71.258 32.9056C71.0284 32.8019 70.8285 32.6593 70.6581 32.4779C70.4878 32.2927 70.3563 32.0761 70.2638 31.828C70.1712 31.5762 70.1249 31.3003 70.1249 31.0004C70.1249 30.7005 70.1712 30.4264 70.2638 30.1783C70.3563 29.9265 70.4859 29.7099 70.6526 29.5285C70.8229 29.3433 71.0229 29.2008 71.2525 29.1008C71.4857 28.9971 71.7394 28.9453 72.0134 28.9453C72.3134 28.9453 72.5818 29.0064 72.8188 29.1286C73.0595 29.2508 73.2558 29.4229 73.4076 29.6451C73.5631 29.8673 73.6594 30.1265 73.6964 30.4227H73.2409C73.1965 30.0932 73.0651 29.834 72.8466 29.6451C72.6318 29.4526 72.3559 29.3563 72.019 29.3563C71.7338 29.3563 71.4839 29.4266 71.2691 29.5674C71.0543 29.7044 70.8877 29.8969 70.7692 30.145C70.6507 30.3894 70.5915 30.6745 70.5915 31.0004C70.5915 31.3263 70.6507 31.6132 70.7692 31.8613C70.8877 32.1057 71.0543 32.2983 71.2691 32.439C71.4839 32.576 71.732 32.6445 72.0134 32.6445C72.3578 32.6445 72.6392 32.5482 72.8577 32.3557C73.0799 32.1631 73.2113 31.9039 73.2521 31.5781H73.7075C73.6705 31.8743 73.5742 32.1335 73.4187 32.3557C73.2669 32.5779 73.0706 32.7501 72.8299 32.8722C72.5929 32.9944 72.3226 33.0555 72.019 33.0555ZM75.8312 33V29.4007H74.4592V29.0008H77.6586V29.4007H76.2866V33H75.8312ZM78.8941 33V29.0008H79.3496V33H78.8941ZM80.8598 33V29.0008H81.332L83.6259 32.3668L83.5593 32.3779V29.0008H83.9925V33H83.5204L81.2264 29.634L81.2931 29.6229V33H80.8598ZM87.3048 33.0555C86.8975 33.0555 86.5438 32.9722 86.2439 32.8056C85.944 32.639 85.7125 32.4057 85.5496 32.1057C85.3867 31.8021 85.3052 31.4448 85.3052 31.0337C85.3052 30.6227 85.3848 30.2617 85.5441 29.9506C85.707 29.6359 85.931 29.3896 86.2161 29.2119C86.505 29.0341 86.8364 28.9453 87.2104 28.9453C87.5029 28.9453 87.7677 29.0008 88.0047 29.1119C88.2454 29.223 88.4416 29.3767 88.5934 29.5729C88.749 29.7692 88.8434 29.9969 88.8767 30.2561H88.4212C88.3842 29.9821 88.2565 29.7636 88.038 29.6007C87.8232 29.4378 87.5529 29.3563 87.227 29.3563C86.9345 29.3563 86.679 29.4266 86.4605 29.5674C86.2421 29.7044 86.0717 29.8969 85.9495 30.145C85.831 30.3931 85.7718 30.6857 85.7718 31.0226C85.7718 31.3596 85.8329 31.6503 85.9551 31.8947C86.081 32.1354 86.2606 32.3205 86.4939 32.4501C86.7308 32.5797 87.0141 32.6445 87.3437 32.6445C87.5696 32.6445 87.7714 32.613 87.9491 32.5501C88.1269 32.4834 88.2879 32.3816 88.4324 32.2446L88.8878 32.4112C88.6842 32.626 88.449 32.7871 88.1824 32.8945C87.9195 33.0019 87.627 33.0555 87.3048 33.0555ZM88.4324 32.4112V31.117L88.6045 31.2892H87.3381V30.8893H88.8878V32.4112H88.4324ZM91.9752 33V29.0008H92.4307V33H91.9752ZM94.6524 33V29.0008H95.1079V33H94.6524ZM92.2085 30.7171H94.8524V31.117H92.2085V30.7171ZM96.6205 33V29.0008H97.076V33H96.6205ZM96.8538 33V32.6001H99.2978V33H96.8538ZM96.8538 31.117V30.7171H99.0978V31.117H96.8538ZM96.8538 29.4007V29.0008H99.2533V29.4007H96.8538ZM100.305 33L101.849 29.0008H102.249L100.743 33H100.305ZM103.482 33L101.977 29.0008H102.404L103.948 33H103.482ZM101.071 31.3837H103.16V31.7836H101.071V31.3837ZM105.179 33V29.0008H105.634V33H105.179ZM105.412 33V32.6001H107.69V33H105.412ZM109.373 33V29.4007H108.001V29.0008H111.2V29.4007H109.828V33H109.373ZM112.435 33V29.0008H112.891V33H112.435ZM115.113 33V29.0008H115.568V33H115.113ZM112.669 30.7171H115.313V31.117H112.669V30.7171ZM118.775 33.0555C118.501 33.0555 118.247 33.0056 118.014 32.9056C117.784 32.8019 117.584 32.6593 117.414 32.4779C117.244 32.2927 117.112 32.0761 117.02 31.828C116.927 31.5762 116.881 31.3003 116.881 31.0004C116.881 30.7005 116.927 30.4264 117.02 30.1783C117.112 29.9265 117.242 29.7099 117.409 29.5285C117.579 29.3433 117.779 29.2008 118.008 29.1008C118.242 28.9971 118.495 28.9453 118.769 28.9453C119.069 28.9453 119.338 29.0064 119.575 29.1286C119.815 29.2508 120.012 29.4229 120.164 29.6451C120.319 29.8673 120.415 30.1265 120.452 30.4227H119.997C119.952 30.0932 119.821 29.834 119.603 29.6451C119.388 29.4526 119.112 29.3563 118.775 29.3563C118.49 29.3563 118.24 29.4266 118.025 29.5674C117.81 29.7044 117.644 29.8969 117.525 30.145C117.407 30.3894 117.347 30.6745 117.347 31.0004C117.347 31.3263 117.407 31.6132 117.525 31.8613C117.644 32.1057 117.81 32.2983 118.025 32.439C118.24 32.576 118.488 32.6445 118.769 32.6445C119.114 32.6445 119.395 32.5482 119.614 32.3557C119.836 32.1631 119.967 31.9039 120.008 31.5781H120.463C120.426 31.8743 120.33 32.1335 120.175 32.3557C120.023 32.5779 119.827 32.7501 119.586 32.8722C119.349 32.9944 119.079 33.0555 118.775 33.0555ZM121.28 33L122.824 29.0008H123.224L121.719 33H121.28ZM124.457 33L122.952 29.0008H123.38L124.924 33H124.457ZM122.047 31.3837H124.135V31.7836H122.047V31.3837ZM126.046 33V29.0008H127.523C127.809 29.0008 128.051 29.0471 128.251 29.1397C128.451 29.2322 128.603 29.3618 128.707 29.5285C128.814 29.6914 128.868 29.8858 128.868 30.1117C128.868 30.3376 128.814 30.5357 128.707 30.706C128.603 30.8727 128.451 31.0041 128.251 31.1004C128.051 31.193 127.809 31.2392 127.523 31.2392H126.379V30.8393H127.507C127.803 30.8393 128.027 30.7745 128.179 30.6449C128.334 30.5153 128.412 30.3376 128.412 30.1117C128.412 29.8895 128.336 29.7155 128.184 29.5896C128.033 29.4637 127.807 29.4007 127.507 29.4007H126.501V33H126.046ZM128.39 33L126.263 31.0171H126.885L129.079 33H128.39ZM130.247 33V29.0008H130.702V33H130.247ZM130.48 33V32.6001H132.924V33H130.48ZM130.48 31.117V30.7171H132.724V31.117H130.48ZM130.48 29.4007V29.0008H132.879V29.4007H130.48ZM136.011 33V29.0008H137.6C137.885 29.0008 138.128 29.0471 138.328 29.1397C138.528 29.2322 138.679 29.3655 138.783 29.5396C138.89 29.7136 138.944 29.9228 138.944 30.1672C138.944 30.4116 138.89 30.6227 138.783 30.8004C138.679 30.9745 138.528 31.1096 138.328 31.2059C138.128 31.3022 137.885 31.3503 137.6 31.3503H136.345V30.9504H137.583C137.88 30.9504 138.104 30.8838 138.255 30.7505C138.411 30.6134 138.489 30.419 138.489 30.1672C138.489 29.9154 138.413 29.7247 138.261 29.5951C138.109 29.4655 137.883 29.4007 137.583 29.4007H136.467V33H136.011ZM140.158 33V29.0008H141.635C141.92 29.0008 142.163 29.0471 142.363 29.1397C142.563 29.2322 142.715 29.3618 142.818 29.5285C142.926 29.6914 142.979 29.8858 142.979 30.1117C142.979 30.3376 142.926 30.5357 142.818 30.706C142.715 30.8727 142.563 31.0041 142.363 31.1004C142.163 31.193 141.92 31.2392 141.635 31.2392H140.491V30.8393H141.619C141.915 30.8393 142.139 30.7745 142.291 30.6449C142.446 30.5153 142.524 30.3376 142.524 30.1117C142.524 29.8895 142.448 29.7155 142.296 29.5896C142.144 29.4637 141.918 29.4007 141.619 29.4007H140.613V33H140.158ZM142.502 33L140.374 31.0171H140.996L143.19 33H142.502ZM146.015 33.0555C145.737 33.0555 145.481 33.0056 145.248 32.9056C145.019 32.8019 144.819 32.6575 144.648 32.4723C144.478 32.2835 144.345 32.0632 144.248 31.8114C144.156 31.5596 144.11 31.2837 144.11 30.9837C144.11 30.5875 144.191 30.2357 144.354 29.9284C144.517 29.6211 144.741 29.3804 145.026 29.2063C145.315 29.0323 145.643 28.9453 146.009 28.9453C146.383 28.9453 146.713 29.0323 146.998 29.2063C147.287 29.3804 147.513 29.6211 147.675 29.9284C147.838 30.2357 147.92 30.5894 147.92 30.9893C147.92 31.2892 147.872 31.5651 147.775 31.8169C147.683 32.0687 147.551 32.2872 147.381 32.4723C147.211 32.6575 147.009 32.8019 146.776 32.9056C146.542 33.0056 146.289 33.0555 146.015 33.0555ZM146.009 32.6445C146.294 32.6445 146.544 32.5742 146.759 32.4334C146.977 32.289 147.148 32.0909 147.27 31.8391C147.392 31.5873 147.453 31.3003 147.453 30.9782C147.453 30.6597 147.392 30.3783 147.27 30.1339C147.151 29.8895 146.983 29.6988 146.765 29.5618C146.55 29.4248 146.298 29.3563 146.009 29.3563C145.72 29.3563 145.468 29.4248 145.254 29.5618C145.039 29.6988 144.872 29.8895 144.754 30.1339C144.635 30.3746 144.576 30.656 144.576 30.9782C144.576 31.304 144.635 31.5929 144.754 31.8447C144.876 32.0928 145.044 32.289 145.259 32.4334C145.474 32.5742 145.724 32.6445 146.009 32.6445ZM149.231 33V29.0008H149.687V33H149.231ZM149.465 31.2837V30.8838H151.62V31.2837H149.465ZM149.465 29.4007V29.0008H151.775V29.4007H149.465ZM153.128 33V29.0008H153.584V33H153.128ZM153.361 33V32.6001H155.805V33H153.361ZM153.361 31.117V30.7171H155.605V31.117H153.361ZM153.361 29.4007V29.0008H155.761V29.4007H153.361ZM158.342 33.05C157.876 33.05 157.504 32.9352 157.226 32.7056C156.952 32.476 156.791 32.1483 156.743 31.7225H157.187C157.228 32.0298 157.344 32.2613 157.537 32.4168C157.729 32.5723 157.996 32.6501 158.337 32.6501C158.626 32.6501 158.842 32.5964 158.987 32.489C159.135 32.3779 159.209 32.2168 159.209 32.0058C159.209 31.8243 159.159 31.6799 159.059 31.5725C158.959 31.4651 158.803 31.3763 158.592 31.3059L157.92 31.0726C157.579 30.9541 157.328 30.8116 157.165 30.6449C157.002 30.4746 156.92 30.2598 156.92 30.0006C156.92 29.7858 156.974 29.6007 157.081 29.4452C157.189 29.2859 157.341 29.1619 157.537 29.073C157.733 28.9841 157.961 28.9397 158.22 28.9397C158.62 28.9397 158.94 29.0452 159.181 29.2563C159.422 29.4637 159.561 29.7599 159.598 30.145H159.153C159.105 29.8673 159.005 29.6636 158.853 29.534C158.705 29.4044 158.49 29.3396 158.209 29.3396C157.942 29.3396 157.735 29.3933 157.587 29.5007C157.439 29.6081 157.365 29.7599 157.365 29.9562C157.365 30.1228 157.417 30.2561 157.52 30.3561C157.624 30.4561 157.785 30.5431 158.003 30.6171L158.72 30.8671C159.031 30.9745 159.264 31.1208 159.42 31.3059C159.575 31.4873 159.653 31.7188 159.653 32.0002C159.653 32.3335 159.538 32.5927 159.309 32.7778C159.083 32.9593 158.761 33.05 158.342 33.05ZM162.277 33.05C161.81 33.05 161.438 32.9352 161.161 32.7056C160.887 32.476 160.726 32.1483 160.677 31.7225H161.122C161.162 32.0298 161.279 32.2613 161.472 32.4168C161.664 32.5723 161.931 32.6501 162.272 32.6501C162.56 32.6501 162.777 32.5964 162.921 32.489C163.069 32.3779 163.144 32.2168 163.144 32.0058C163.144 31.8243 163.094 31.6799 162.994 31.5725C162.894 31.4651 162.738 31.3763 162.527 31.3059L161.855 31.0726C161.514 30.9541 161.262 30.8116 161.1 30.6449C160.937 30.4746 160.855 30.2598 160.855 30.0006C160.855 29.7858 160.909 29.6007 161.016 29.4452C161.124 29.2859 161.275 29.1619 161.472 29.073C161.668 28.9841 161.896 28.9397 162.155 28.9397C162.555 28.9397 162.875 29.0452 163.116 29.2563C163.356 29.4637 163.495 29.7599 163.532 30.145H163.088C163.04 29.8673 162.94 29.6636 162.788 29.534C162.64 29.4044 162.425 29.3396 162.144 29.3396C161.877 29.3396 161.67 29.3933 161.522 29.5007C161.374 29.6081 161.299 29.7599 161.299 29.9562C161.299 30.1228 161.351 30.2561 161.455 30.3561C161.559 30.4561 161.72 30.5431 161.938 30.6171L162.655 30.8671C162.966 30.9745 163.199 31.1208 163.355 31.3059C163.51 31.4873 163.588 31.7188 163.588 32.0002C163.588 32.3335 163.473 32.5927 163.244 32.7778C163.018 32.9593 162.695 33.05 162.277 33.05ZM164.857 33V29.0008H165.312V33H164.857ZM168.527 33.0555C168.25 33.0555 167.994 33.0056 167.761 32.9056C167.531 32.8019 167.331 32.6575 167.161 32.4723C166.991 32.2835 166.857 32.0632 166.761 31.8114C166.669 31.5596 166.622 31.2837 166.622 30.9837C166.622 30.5875 166.704 30.2357 166.867 29.9284C167.03 29.6211 167.254 29.3804 167.539 29.2063C167.828 29.0323 168.155 28.9453 168.522 28.9453C168.896 28.9453 169.225 29.0323 169.511 29.2063C169.799 29.3804 170.025 29.6211 170.188 29.9284C170.351 30.2357 170.433 30.5894 170.433 30.9893C170.433 31.2892 170.385 31.5651 170.288 31.8169C170.196 32.0687 170.064 32.2872 169.894 32.4723C169.724 32.6575 169.522 32.8019 169.288 32.9056C169.055 33.0056 168.801 33.0555 168.527 33.0555ZM168.522 32.6445C168.807 32.6445 169.057 32.5742 169.272 32.4334C169.49 32.289 169.661 32.0909 169.783 31.8391C169.905 31.5873 169.966 31.3003 169.966 30.9782C169.966 30.6597 169.905 30.3783 169.783 30.1339C169.664 29.8895 169.496 29.6988 169.277 29.5618C169.063 29.4248 168.811 29.3563 168.522 29.3563C168.233 29.3563 167.981 29.4248 167.767 29.5618C167.552 29.6988 167.385 29.8895 167.267 30.1339C167.148 30.3746 167.089 30.656 167.089 30.9782C167.089 31.304 167.148 31.5929 167.267 31.8447C167.389 32.0928 167.557 32.289 167.772 32.4334C167.987 32.5742 168.237 32.6445 168.522 32.6445ZM171.744 33V29.0008H172.216L174.51 32.3668L174.444 32.3779V29.0008H174.877V33H174.405L172.111 29.634L172.177 29.6229V33H171.744ZM176.112 33L177.656 29.0008H178.056L176.551 33H176.112ZM179.289 33L177.784 29.0008H178.211L179.756 33H179.289ZM176.878 31.3837H178.967V31.7836H176.878V31.3837ZM180.986 33V29.0008H181.442V33H180.986ZM181.219 33V32.6001H183.497V33H181.219ZM185.896 33.05C185.43 33.05 185.058 32.9352 184.78 32.7056C184.506 32.476 184.345 32.1483 184.297 31.7225H184.741C184.782 32.0298 184.898 32.2613 185.091 32.4168C185.284 32.5723 185.55 32.6501 185.891 32.6501C186.18 32.6501 186.396 32.5964 186.541 32.489C186.689 32.3779 186.763 32.2168 186.763 32.0058C186.763 31.8243 186.713 31.6799 186.613 31.5725C186.513 31.4651 186.357 31.3763 186.146 31.3059L185.474 31.0726C185.134 30.9541 184.882 30.8116 184.719 30.6449C184.556 30.4746 184.474 30.2598 184.474 30.0006C184.474 29.7858 184.528 29.6007 184.636 29.4452C184.743 29.2859 184.895 29.1619 185.091 29.073C185.287 28.9841 185.515 28.9397 185.774 28.9397C186.174 28.9397 186.494 29.0452 186.735 29.2563C186.976 29.4637 187.115 29.7599 187.152 30.145H186.707C186.659 29.8673 186.559 29.6636 186.407 29.534C186.259 29.4044 186.045 29.3396 185.763 29.3396C185.496 29.3396 185.289 29.3933 185.141 29.5007C184.993 29.6081 184.919 29.7599 184.919 29.9562C184.919 30.1228 184.971 30.2561 185.074 30.3561C185.178 30.4561 185.339 30.5431 185.558 30.6171L186.274 30.8671C186.585 30.9745 186.818 31.1208 186.974 31.3059C187.129 31.4873 187.207 31.7188 187.207 32.0002C187.207 32.3335 187.092 32.5927 186.863 32.7778C186.637 32.9593 186.315 33.05 185.896 33.05Z" fill="#0A3254"/>
</g>
<defs>
<clipPath id="clip0_2472_14427">
<rect width="188.126" height="44" fill="white"/>
</clipPath>
</defs>
</svg>
